<?xml version="1.0" encoding="utf-8"?>
<!-- Generator: Adobe Illustrator 27.9.3, SVG Export Plug-In . SVG Version: 9.03 Build 53313)  -->
<svg version="1.1" id="Layer_1" xmlns="http://www.w3.org/2000/svg" xmlns:xlink="http://www.w3.org/1999/xlink" x="0px" y="0px"
	 viewBox="0 0 56.8 57.1" style="enable-background:new 0 0 56.8 57.1;" xml:space="preserve">
<style type="text/css">
	.st0{fill:#FFFFFF;}
	.st1{fill:#005DAA;}
	.st2{fill:#FDB913;}
</style>
<g>
	<path class="st0" d="M56.8,28.5c0,15.7-12.7,28.4-28.4,28.4C12.7,56.9,0,44.2,0,28.5C0,12.9,12.7,0.2,28.4,0.2
		C44,0.2,56.8,12.9,56.8,28.5"/>
	<path class="st1" d="M23,49.7l-0.7-0.2L21.5,53l0,0l2.2,0.5l0.2-0.6l-1.5-0.4L23,49.7z M36.3,48.9l0.7,2l-2-1.5l-0.6,0.2l1.2,3.3
		l0.7-0.2l-0.7-2l2,1.5l0,0l0.6-0.2L37,48.6L36.3,48.9z M17.3,51.4l0.7,0.3l0.4-0.5l1.1,0.5l0,0.7l0,0l0.7,0.3l0.1-3.8l-0.5-0.2
		L17.3,51.4z M19.6,51l-0.8-0.3l0.8-1L19.6,51z M33.6,50.7c-0.1-0.2-0.2-0.3-0.4-0.5c-0.1-0.1-0.3-0.2-0.5-0.2c-0.1,0-0.2,0-0.3,0
		c-0.1,0-0.2,0-0.3,0c-0.2,0-0.4,0.1-0.5,0.2c-0.1,0.1-0.3,0.2-0.4,0.4c-0.1,0.2-0.2,0.4-0.2,0.6v0c0,0.2,0,0.5,0.1,0.8
		c0.1,0.4,0.1,0.7,0.2,0.9c0.1,0.2,0.2,0.4,0.4,0.5c0.1,0.1,0.3,0.2,0.5,0.2c0.1,0,0.2,0,0.3,0c0.1,0,0.2,0,0.3,0
		c0.2,0,0.4-0.1,0.5-0.2c0.1-0.1,0.3-0.2,0.4-0.4c0.1-0.2,0.2-0.4,0.2-0.6c0,0,0,0,0,0c0-0.2,0-0.5-0.1-0.8
		C33.7,51.1,33.7,50.9,33.6,50.7 M33.2,52.3c0,0.1,0,0.1,0,0.2c0,0,0,0.1-0.1,0.1c-0.1,0.1-0.2,0.2-0.4,0.3c0,0-0.1,0-0.1,0
		c0,0-0.1,0-0.1,0c-0.1,0-0.1-0.1-0.2-0.1c0,0-0.1-0.1-0.1-0.1c0,0-0.1-0.1-0.1-0.2c0-0.1,0-0.2-0.1-0.3c0-0.1-0.1-0.2-0.1-0.4
		c0-0.2-0.1-0.3-0.1-0.4c0-0.1,0-0.2,0-0.2v0c0-0.1,0-0.1,0-0.2c0,0,0-0.1,0.1-0.1c0-0.1,0.1-0.1,0.2-0.2c0.1,0,0.1-0.1,0.2-0.1
		c0,0,0.1,0,0.1,0c0.1,0,0.2,0,0.3,0.1c0,0,0.1,0.1,0.1,0.1c0,0,0.1,0.1,0.1,0.2c0,0.1,0.1,0.1,0.1,0.3c0,0.1,0,0.2,0.1,0.4
		c0,0.2,0.1,0.3,0.1,0.4C33.2,52.2,33.2,52.3,33.2,52.3L33.2,52.3L33.2,52.3z M29.1,50.3l0.2,3.5l0,0l0.7,0l-0.2-3.5L29.1,50.3z
		 M26.8,50.3l-1.4-0.1l-0.3,3.5l1.5,0.1c0,0,0.1,0,0.1,0h0c0.3,0,0.5-0.1,0.7-0.2c0.2-0.2,0.3-0.4,0.4-0.7c0,0,0-0.1,0-0.1
		c0-0.2,0-0.3-0.1-0.4c-0.1-0.1-0.2-0.2-0.3-0.3c0.1,0,0.2-0.1,0.3-0.2c0.1-0.1,0.2-0.3,0.2-0.5c0,0,0-0.1,0-0.1
		c0-0.3-0.1-0.5-0.2-0.6C27.4,50.4,27.2,50.3,26.8,50.3 M27.1,52.8c0,0.1-0.1,0.2-0.1,0.3c-0.1,0.1-0.2,0.1-0.3,0.1c0,0,0,0-0.1,0
		l-0.7-0.1l0.1-0.8l0.7,0.1c0.1,0,0.2,0.1,0.3,0.1C27,52.6,27.1,52.7,27.1,52.8C27.1,52.8,27.1,52.8,27.1,52.8 M27.1,51.4
		c0,0.1-0.1,0.2-0.1,0.3c-0.1,0.1-0.2,0.1-0.3,0.1c0,0,0,0-0.1,0L26,51.6l0.1-0.8l0.7,0.1c0.1,0,0.2,0.1,0.3,0.1
		C27.1,51.1,27.1,51.2,27.1,51.4C27.1,51.3,27.1,51.3,27.1,51.4 M28.4,0.5c-15.5,0-28,12.5-28,28s12.5,28,28,28
		c15.5,0,28-12.5,28-28C56.4,13.1,43.8,0.5,28.4,0.5 M28.4,55.5c-14.9,0-26.9-12.1-26.9-26.9c0-14.9,12.1-26.9,26.9-26.9
		s26.9,12.1,26.9,26.9C55.3,43.4,43.3,55.5,28.4,55.5 M34.4,7.7c0.2,0.1,0.3,0.1,0.4,0.1c0,0,0.1,0,0.1,0c0.1,0,0.3-0.1,0.4-0.1l0,0
		L35.5,8l0.8,0.3l-0.4-0.9c0.1-0.1,0.3-0.2,0.4-0.3c0.1-0.1,0.2-0.3,0.3-0.5l0,0L36,6.2l0,0c-0.1,0.2-0.2,0.4-0.3,0.5l-0.3-0.8
		c0,0,0.1,0,0.1,0c0.1,0,0.1,0,0.1,0c0.1,0,0.2-0.1,0.3-0.2c0.1-0.1,0.2-0.2,0.2-0.3c0-0.1,0-0.2,0-0.3c0-0.1,0-0.3-0.1-0.4
		c-0.1-0.2-0.3-0.3-0.6-0.4c-0.1,0-0.3-0.1-0.4-0.1c-0.1,0-0.2,0-0.4,0.1c-0.2,0.1-0.4,0.3-0.4,0.5c0,0.1,0,0.2,0,0.2
		c0,0.1,0,0.1,0,0.2c0,0.1,0.1,0.2,0.1,0.4c-0.2,0.1-0.4,0.1-0.5,0.2c-0.2,0.1-0.3,0.3-0.3,0.4c0,0.1-0.1,0.3-0.1,0.4
		c0,0.2,0,0.3,0.1,0.5C33.8,7.4,34,7.5,34.4,7.7 M35,5c0-0.1,0.1-0.1,0.1-0.2c0,0,0.1,0,0.1,0c0,0,0.1,0,0.1,0
		c0.1,0,0.1,0.1,0.2,0.1c0,0,0,0.1,0,0.1c0,0,0,0.1,0,0.1c0,0,0,0.1-0.1,0.1c0,0-0.1,0.1-0.2,0.1c0,0,0,0-0.1,0c0,0,0,0-0.1,0
		c0-0.1-0.1-0.2-0.1-0.2C35,5.2,35,5.1,35,5C35,5.1,35,5,35,5 M34.2,6.5c0-0.1,0.1-0.2,0.2-0.2c0.1-0.1,0.2-0.1,0.3-0.1l0.4,0.9
		c-0.1,0-0.2,0.1-0.3,0.1h0c-0.1,0-0.1,0-0.2,0c-0.1,0-0.2-0.1-0.3-0.2c0-0.1-0.1-0.1-0.1-0.2C34.2,6.6,34.2,6.5,34.2,6.5 M28.4,4.7
		l1.4,2.1h0.6V3.3h-0.7v2.1l-1.4-2.1h-0.6v3.5h0.7V4.7z M46,15.6l1.3,1.9l0.5-0.3l-0.9-1.4l0.7-0.4l0.8,1.1l0.5-0.3l-0.8-1.1
		l0.6-0.4l0.9,1.3l0.5-0.3l-1.3-1.9L46,15.6L46,15.6z M42.2,10.5C42.1,10.7,42,10.8,42,11c0,0,0,0.1,0,0.1c0,0.2,0.1,0.3,0.1,0.5
		c0.1,0.2,0.2,0.3,0.3,0.4c0.1,0.1,0.3,0.2,0.5,0.3c0.1,0,0.3,0.1,0.4,0.1c0,0,0.1,0,0.1,0c0.2,0,0.4-0.1,0.6-0.2
		c0.2-0.1,0.4-0.3,0.6-0.6c0.2-0.3,0.4-0.5,0.5-0.7c0.1-0.1,0.1-0.3,0.1-0.5c0,0,0-0.1,0-0.1c0-0.2-0.1-0.3-0.1-0.5
		c-0.1-0.2-0.2-0.3-0.3-0.4c-0.2-0.1-0.3-0.2-0.5-0.3C44.2,9,44.1,9,43.9,9c0,0-0.1,0-0.1,0c-0.2,0-0.4,0.1-0.6,0.2
		c-0.2,0.1-0.4,0.3-0.6,0.6C42.4,10.1,42.3,10.3,42.2,10.5 M42.7,11.1c0,0,0-0.1,0-0.1c0,0,0-0.1,0.1-0.2c0-0.1,0.1-0.1,0.1-0.2
		c0.1-0.1,0.2-0.2,0.3-0.3c0.1-0.1,0.2-0.2,0.3-0.3c0.1-0.1,0.1-0.1,0.2-0.2c0.1,0,0.1-0.1,0.1-0.1s0.1,0,0.1,0c0,0,0,0,0.1,0
		c0,0,0.1,0,0.2,0c0.1,0,0.1,0.1,0.2,0.1c0.1,0.1,0.2,0.3,0.2,0.4v0c0,0,0,0.1,0,0.1c0,0,0,0.1-0.1,0.2c0,0.1-0.1,0.1-0.1,0.2
		c-0.1,0.1-0.2,0.2-0.3,0.3c-0.1,0.1-0.2,0.2-0.3,0.3c-0.1,0.1-0.1,0.1-0.2,0.2c-0.1,0-0.1,0.1-0.1,0.1c0,0-0.1,0-0.1,0
		c0,0-0.1,0-0.1,0c-0.1,0-0.2,0-0.4-0.1c-0.1-0.1-0.1-0.1-0.2-0.2C42.7,11.3,42.7,11.2,42.7,11.1L42.7,11.1z M40.1,8.5l1,0.6
		l-0.8,1.2l0,0l0.6,0.4l1.8-3l-0.6-0.4l-0.7,1.2l-1-0.6l0.7-1.2l-0.6-0.4l-1.8,3l0.6,0.4L40.1,8.5z M44.9,14.3L44.9,14.3l3.4-1.4
		l-0.5-0.6l-2.1,0.9l1.2-2l-0.5-0.6l-1.8,3.2L44.9,14.3z M24.2,6.2c0.1,0.2,0.2,0.4,0.4,0.5c0.1,0.1,0.3,0.2,0.5,0.2
		c0.1,0,0.2,0,0.3,0c0.1,0,0.1,0,0.2,0c0.2,0,0.4-0.1,0.5-0.2c0.1-0.1,0.3-0.2,0.4-0.3c0.1-0.2,0.2-0.4,0.2-0.6c0,0,0-0.1,0-0.1
		c0-0.2,0-0.4-0.1-0.7c0-0.4-0.1-0.7-0.2-0.8c-0.1-0.2-0.2-0.3-0.4-0.5c-0.1-0.1-0.3-0.2-0.5-0.2c-0.1,0-0.2,0-0.3,0
		c-0.1,0-0.1,0-0.2,0c-0.2,0-0.4,0.1-0.5,0.2c-0.1,0.1-0.3,0.2-0.4,0.3C24.1,4.1,24,4.3,24,4.5c0,0,0,0.1,0,0.2c0,0.2,0,0.4,0.1,0.7
		C24.1,5.8,24.1,6,24.2,6.2 M24.7,4.6c0-0.1,0-0.1,0-0.2s0-0.1,0.1-0.1c0-0.1,0.1-0.1,0.2-0.2c0.1,0,0.1-0.1,0.2-0.1
		c0,0,0.1,0,0.1,0c0.1,0,0.3,0,0.3,0.1c0,0,0.1,0.1,0.1,0.1c0,0,0.1,0.1,0.1,0.2c0,0.1,0,0.1,0.1,0.2c0,0.1,0,0.2,0.1,0.4
		c0,0.2,0,0.3,0,0.4c0,0.1,0,0.1,0,0.2c0,0,0,0.1,0,0.1c0,0.1,0,0.1,0,0.2c0,0,0,0.1-0.1,0.1c-0.1,0.1-0.2,0.2-0.4,0.2
		c0,0-0.1,0-0.1,0c-0.1,0-0.1,0-0.2,0c-0.1,0-0.1-0.1-0.2-0.1c0,0-0.1-0.1-0.1-0.1c0,0,0-0.1-0.1-0.2c0-0.1,0-0.1-0.1-0.3
		c0-0.1,0-0.2-0.1-0.4c0-0.2,0-0.3,0-0.4C24.7,4.8,24.7,4.8,24.7,4.6C24.7,4.7,24.7,4.6,24.7,4.6 M12,14.2l-1-0.9l0.3-0.3l1.5,0.4
		l0,0l0.6-0.6l-1.6-0.4c0-0.1,0.1-0.2,0.1-0.4c0-0.1,0-0.1,0-0.2c0-0.2-0.1-0.4-0.3-0.5c-0.1-0.1-0.2-0.2-0.4-0.2
		C11,11,10.9,11,10.8,11c0,0,0,0-0.1,0c-0.1,0-0.3,0-0.4,0.1c-0.1,0.1-0.3,0.2-0.4,0.3l-0.9,1l2.6,2.3L12,14.2z M10.6,12.9L10,12.3
		l0.4-0.5c0.1-0.1,0.2-0.2,0.3-0.2c0,0,0,0,0,0c0.1,0,0.2,0,0.3,0.1c0.1,0.1,0.1,0.2,0.1,0.3c0,0.1,0,0.2-0.1,0.3L10.6,12.9z
		 M10.3,16.4c0.1-0.2,0.2-0.4,0.2-0.7c0,0,0-0.1,0-0.1c0-0.3-0.2-0.5-0.5-0.7c-0.2-0.1-0.3-0.2-0.5-0.2c0,0,0,0,0,0
		c-0.1,0-0.3,0-0.4,0.1c0,0,0,0,0,0c0-0.1,0-0.2-0.1-0.3c-0.1-0.1-0.2-0.3-0.3-0.4C8.6,14.1,8.4,14,8.2,14c-0.1,0-0.1,0-0.2,0
		c-0.3,0.1-0.5,0.2-0.7,0.5l-0.8,1.2l2.9,1.9L10.3,16.4z M8.5,15.4l-0.4,0.5l-0.6-0.4L7.9,15c0.1-0.1,0.2-0.2,0.3-0.2
		c0,0,0.1,0,0.1,0c0.1,0,0.1,0,0.2,0.1c0.1,0.1,0.2,0.1,0.2,0.2c0,0,0,0,0,0.1C8.6,15.2,8.6,15.3,8.5,15.4 M8.7,16.3l0.4-0.6
		c0.1-0.1,0.2-0.2,0.3-0.2h0c0,0,0.1,0,0.1,0c0.1,0,0.2,0,0.2,0.1c0.1,0.1,0.2,0.1,0.2,0.3c0,0,0,0.1,0,0.1c0,0.1,0,0.2-0.1,0.3
		l-0.4,0.6L8.7,16.3z M14,12.2l0.5-0.5l-2.3-2.6l-0.5,0.5L14,12.2L14,12.2z M21.5,4.9l0.8,2.7L23,7.4l-0.8-2.7l0.9-0.2l-0.2-0.6
		l-2.4,0.7l0.2,0.6L21.5,4.9z M14.3,9.7c0.2,0.3,0.4,0.5,0.5,0.7c0.1,0.1,0.3,0.2,0.5,0.3c0.1,0,0.2,0,0.3,0c0.3,0,0.5-0.1,0.7-0.2
		c0.3-0.2,0.5-0.5,0.6-0.9c0-0.1,0-0.1,0-0.2c0-0.1,0-0.2,0-0.3c-0.1-0.2-0.1-0.4-0.3-0.6l-0.3-0.4l-1.1,0.7l0.3,0.5L16.1,9L16.2,9
		c0,0.1,0.1,0.2,0.1,0.2c0,0.1,0,0.1,0,0.2c0,0,0,0,0,0.1c0,0.2-0.1,0.3-0.3,0.4C15.9,10,15.8,10,15.7,10c0,0-0.1,0-0.1,0
		c0,0-0.1,0-0.1-0.1c0,0-0.1-0.1-0.1-0.1c-0.1-0.1-0.1-0.1-0.2-0.2c-0.1-0.1-0.1-0.2-0.2-0.3c-0.1-0.1-0.2-0.3-0.2-0.4
		c-0.1-0.1-0.1-0.2-0.1-0.2c0-0.1,0-0.1,0-0.2c0,0,0,0,0-0.1c0,0,0,0,0-0.1c0-0.2,0.1-0.3,0.3-0.4C14.9,8,15,7.9,15.1,7.9
		c0,0,0,0,0.1,0c0.1,0,0.2,0,0.3,0l0,0l0.1-0.7l0,0c-0.1,0-0.3,0-0.4,0c-0.1,0-0.2,0-0.2,0c-0.2,0-0.4,0.1-0.6,0.2
		c-0.3,0.2-0.5,0.5-0.6,0.8c0,0.1,0,0.2,0,0.2c0,0.1,0,0.3,0.1,0.4C14,9.1,14.1,9.4,14.3,9.7 M19,8.9l-0.6-1.3l1-0.5L20,8.5l0,0
		l0.6-0.3L19.2,5l-0.7,0.3l0.6,1.3l-1,0.5l-0.6-1.3l-0.7,0.3l1.4,3.2L19,8.9z M39.9,30.3c0.3,0,0.5-0.3,0.5-0.3s-0.2-0.3-0.5-0.3
		c-0.3,0-0.5,0.3-0.5,0.3S39.6,30.3,39.9,30.3 M53.5,25.3c-0.3-0.2-0.9-0.4-1.6-0.7c-0.8-0.3-2.4-0.8-4.1-1.3
		C45.4,14.7,37.6,8.4,28.4,8.4c-10.4,0-18.9,7.9-20,18c-1,0.2-2,0.3-2.8,0.4C3.9,26.9,2.7,27,2.7,27c-0.1,0-0.1,0.1-0.1,0.1
		c0,0,0,0,0,0c0,0.1,0.1,0.5,0.7,0.8c0.6,0.3,1.8,0.6,4.2,0.6c0.3,0,0.5,0,0.8,0c0,11.1,9,20.1,20.1,20.1c11.1,0,20.1-9,20.1-20.1
		c0-1.3-0.1-2.5-0.3-3.7c2.1,0.5,4.7,1,5.5,1c0.1,0,0.2,0,0.2,0c0.1,0,0.1-0.1,0.1-0.2C54,25.5,53.8,25.5,53.5,25.3 M53.7,25.7
		c-1.3,0-7.4-1.6-8.2-1.6c-1.3,0-4.4,1.7-5.9,2.7c-0.5,0.3-0.9,0.6-1.4,0.8c0.1,0,0.2,0,0.3,0c1,0.1,1.8,0.5,2.5,1
		c0.9,0.7,1.8,1.5,2.3,1.6c0,0,0.1,0,0.1,0h0c0.8,0.1,3,0.6,2.9,1.9c0,0-1.6-0.5-3.4-0.2c-0.7,0.2-1.8,0.3-3.4,0.8
		c-1.5,0.5-5.5,2-8.6,2c-2.4,0-7.2-1.4-9.9-1.6c-0.2,0-0.3,0-0.5,0c-2.1,0-3.9,1.1-4.8,1.1c-0.8,0-2.2-0.1-3.7-1.2
		c-1.1-0.8-1.9-2-1.9-2.8c0-0.3,0.1-0.6,0.3-0.7c0.2-0.1,0.4-0.1,0.7-0.1c1.1,0,3.2,0.5,5.8,0.5c1.5,0,3.2-0.2,4.8-0.7
		c0.4-0.1,1.5-0.4,2.3-0.6c0.2,0.1,0.4,0.3,0.6,0.4c0,0,0,0,0.1,0c0,0,0.1,0,0.1-0.1c0-0.1,0-0.1,0-0.2c-1.4-1-2.1-1.5-4.5-1.5
		c-1.5,0-3.7,0.2-7.3,0.6c-2.3,0.3-4.1,0.4-5.5,0.4c-2.3,0-3.5-0.3-4-0.6c-0.4-0.2-0.5-0.4-0.5-0.5c0.8-0.1,5-0.3,8.6-1.2
		c4.2-0.9,10.7-3.5,13.7-3.5c1.1,0,3.1,1.2,5,2.5c2,1.3,3.9,2.7,5.1,3.3c0.1,0,0.1,0,0.2-0.1c0-0.1,0-0.1-0.1-0.2
		c-0.7-0.3-1.7-0.9-2.8-1.7c1.5-0.7,6.7-3.9,10.5-3.8c1.8,0,7,1.5,8.6,2.2c0.8,0.3,1.3,0.6,1.6,0.7C53.5,25.5,53.7,25.6,53.7,25.7
		c0.1,0,0.1,0,0.1,0C53.8,25.7,53.7,25.7,53.7,25.7"/>
	<path class="st2" d="M42.9,32c1.9-0.3,3.4,0.2,3.4,0.2c0.1-1.4-2.3-1.9-3-2c0,0,0.4,0.7-1.5,0.9c0,0-0.9,0-1.2,0.3
		C40.5,31.4,42.3,31.2,42.9,32L42.9,32z"/>
</g>
</svg>
