<?xml version="1.0" encoding="utf-8"?>
<!-- Generator: Adobe Illustrator 27.0.0, SVG Export Plug-In . SVG Version: 6.00 Build 0)  -->
<svg version="1.1" id="Layer_1" xmlns="http://www.w3.org/2000/svg" xmlns:xlink="http://www.w3.org/1999/xlink" x="0px" y="0px"
	 viewBox="0 0 500 500" style="enable-background:new 0 0 500 500;" xml:space="preserve">
<style type="text/css">
	.st0{fill:#231F20;}
	.st1{fill:#FDB913;}
	.st2{fill:#FFFFFF;}
</style>
<polygon class="st0" points="126.4,464.1 2.9,250 126.4,35.9 373.6,35.9 497.1,250 373.6,464.1 "/>
<polygon class="st1" points="150.2,422.9 50.4,250 150.2,77.1 349.8,77.1 449.6,250 349.8,422.9 "/>
<path class="st2" d="M152.3,419.3h195.5L445.5,250L347.7,80.7H152.3L54.5,250L152.3,419.3z M351.8,426.6H148.2L46.2,250l1.1-1.8
	L148.2,73.4h203.8l1.1,1.8L453.9,250L351.8,426.6z"/>
<polygon class="st0" points="221.3,169.3 278.5,169.3 309,92.7 391.5,260.5 302.2,313.3 273.6,407.3 226.4,407.3 197.9,313.1 
	108.5,260.5 190.9,92.7 "/>
<path class="st2" d="M233.1,272.6L191,227.4v45.2H233.1z M309,227.4v45.2h-42.2L309,227.4z"/>
</svg>
